# xmcd
# 
# Track frame offsets:
#     150
#     35624
#     66075
#     99446
#     127926
#     155868
#     176810
#     205617
#     225395
#     251721
#     274975
#     304716
# 
# Disc length: 4453
# 
# Revision: 1
# Processed by: cddbd v1.5.2PL0 Copyright (c) Steve Scherf et al.
# Submitted via: fre:ac v1.0.17
# 
DISCID=a411630c
DTITLE=Paul Oakenfold - A State of Trance 500
DYEAR=2010
DGENRE=Trance
TTITLE0=Grace - Not Over Yet (Robert Vadney Remix)
TTITLE1=Interstate - I Found You
TTITLE2=Peter Martin presents Anthanasia - Perfect Wave
TTITLE3=Chakra - Home
TTITLE4=Ascension - Someone (Robert Vadney Remix)
TTITLE5=Paul Oakenfold - Southern Sun (Roman Hunter Remix)
TTITLE6=Solarstone - Seven Cities (V-One’s Living Cities Remix)
TTITLE7=Planet Perfecto - Bullet In A Gun (Nat Monday Remix)
TTITLE8=Insigma - Open Our Eyes
TTITLE9=Paul Oakenfold feat. Matt Goss - Firefly (Nat Monday Remix)
TTITLE10=Paul Oakenfold - Tokyo
TTITLE11=DJ Misjah and DJ Tim - Access
EXTD=
EXTT0=
EXTT1=
EXTT2=
EXTT3=
EXTT4=
EXTT5=
EXTT6=
EXTT7=
EXTT8=
EXTT9=
EXTT10=
EXTT11=
PLAYORDER=
